<svg xmlns="http://www.w3.org/2000/svg" width="75" height="75" viewBox="0 0 156.833 156.833" class="logo primary-shadow mb-8" data-v-4fc95dac=""><g id="Group_34" data-name="Group 34" transform="translate(-27.911 -110.171)" data-v-4fc95dac=""><g id="Group_32" data-name="Group 32" transform="translate(27.743 110.167)" data-v-4fc95dac=""><rect id="Rectangle_45" data-name="Rectangle 45" width="140.834" height="137.842" rx="37" transform="translate(8 9)" fill="#fff" data-v-4fc95dac=""></rect></g><rect id="Rectangle_46" data-name="Rectangle 46" width="57.334" height="37.828" rx="5.852" transform="translate(36.083 172.779)" fill="#04bb66" data-v-4fc95dac=""></rect><rect id="Rectangle_47" data-name="Rectangle 47" width="57.334" height="37.828" rx="5.852" transform="translate(118.908 172.779)" fill="#04bb66" data-v-4fc95dac=""></rect><line id="Line_1" data-name="Line 1" x2="25.491" transform="translate(93.417 191.694)" fill="#04bb66" data-v-4fc95dac=""></line><g id="Group_33" data-name="Group 33" transform="translate(27.911 110.171)" data-v-4fc95dac=""><path id="Path_91" data-name="Path 91" d="M150.85,110.168H61.583A33.821,33.821,0,0,0,27.8,143.956v89.267A33.819,33.819,0,0,0,61.583,267H150.85a33.817,33.817,0,0,0,33.778-33.778V143.956A33.819,33.819,0,0,0,150.85,110.168ZM61.583,126.511H150.85a17.324,17.324,0,0,1,16.255,11.6H124.817v16.343h43.468v12.577a26.813,26.813,0,0,0-11.067-2.427h-19.51a27.036,27.036,0,0,0-25.687,18.916H100.076a27.035,27.035,0,0,0-25.684-18.916H54.879a26.85,26.85,0,0,0-10.741,2.25v-12.4H87.276V138.115H45.321A17.332,17.332,0,0,1,61.583,126.511Zm106.376,65.183a10.754,10.754,0,0,1-10.741,10.741h-19.51a10.741,10.741,0,1,1,0-21.482h19.51A10.754,10.754,0,0,1,167.958,191.694Zm-82.825,0a10.754,10.754,0,0,1-10.741,10.741H54.879a10.741,10.741,0,0,1,0-21.482H74.392A10.754,10.754,0,0,1,85.133,191.694Zm65.716,58.964H61.583a17.46,17.46,0,0,1-17.445-17.435V216.531a26.9,26.9,0,0,0,10.741,2.246H74.392a27.036,27.036,0,0,0,25.684-18.912H112.02a27.037,27.037,0,0,0,25.687,18.912h19.51a26.811,26.811,0,0,0,11.067-2.424v16.87A17.452,17.452,0,0,1,150.85,250.658Z" transform="translate(-27.795 -110.168)" fill="#1a1818" data-v-4fc95dac=""></path><rect id="Rectangle_48" data-name="Rectangle 48" width="50.188" height="16.343" transform="translate(53.323 114.257)" fill="#1a1818" data-v-4fc95dac=""></rect></g></g></svg>